<svg width="250" height="250" viewBox="0 0 250 250" fill="none" xmlns="http://www.w3.org/2000/svg">
<rect x="1" y="1" width="248" height="248" rx="51" fill="white" stroke="#787880" stroke-opacity="0.2"/>
<path d="M125 233C184.647 233 233 184.647 233 125C233 65.3532 184.647 17 125 17C65.3532 17 17 65.3532 17 125C17 184.647 65.3532 233 125 233Z" fill="url(#paint0_linear_0_3507)"/>
<path d="M54.8728 129.601C67.5584 122.668 81.7189 116.882 94.9498 111.067C117.712 101.541 140.565 92.1812 163.648 83.4669C168.139 81.9822 176.209 80.5304 177 87.1333C176.567 96.4801 174.784 105.772 173.562 115.064C170.459 135.498 166.872 155.862 163.375 176.229C162.17 183.013 153.604 186.525 148.123 182.183C134.951 173.357 121.677 164.615 108.673 155.583C104.414 151.289 108.364 145.122 112.168 142.056C123.017 131.448 134.522 122.436 144.804 111.281C147.578 104.636 139.383 110.236 136.68 111.952C121.828 122.106 107.339 132.88 91.68 141.804C83.6814 146.173 74.359 142.44 66.364 140.002C59.1957 137.058 48.6912 134.091 54.8721 129.601L54.8728 129.601Z" fill="white"/>
<defs>
<linearGradient id="paint0_linear_0_3507" x1="94.7292" y1="-82.9923" x2="-52.8856" y2="155.673" gradientUnits="userSpaceOnUse">
<stop stop-color="#34B0DF"/>
<stop offset="1" stop-color="#1E88D3"/>
</linearGradient>
</defs>
</svg>
